# xmcd
#
# Track frame offsets: 
#        150
#        13494
#        31245
#        49035
#        67157
#        81481
#        95412
#        109529
#        129419
#        148684
#        167864
#        181952
#        199448
#        213939
#        233841
#        251888
#
# Disc length: 3606 seconds
#
# Revision: 7
# Processed by: cddbd v1.5.2PL0 Copyright (c) Steve Scherf et al.
# Submitted via: ExactAudioCopy v1.1
#
DISCID=ee0e1410
DTITLE=Mobb Deep - Blood Money
DYEAR=2006
DGENRE=Hip-Hop
TTITLE0=Smoke It
TTITLE1=Put 'Em In Their Place
TTITLE2=Stole Something (Feat. Lloyd Banks)
TTITLE3=Creep (Feat. 50 Cent)
TTITLE4=Speakin' So Freely
TTITLE5=Backstage Pass
TTITLE6=Give It To Me (Feat. Young Buck)
TTITLE7=Click Click (Feat. Tony Yayo)
TTITLE8=Pearly Gates (Feat. 50 Cent)
TTITLE9=Capital P, Capital H
TTITLE10=Daydreamin'
TTITLE11=The Infamous (Feat. 50 Cent)
TTITLE12=In Love With The Moula
TTITLE13=It's Alright (Feat. 50 Cent and Mary J. Blige)
TTITLE14=Have A Party (Feat. 50 Cent and Nate Dogg)
TTITLE15=Outta Control (Remix) (50 Cent Feat. Mobb Deep)
EXTD=
EXTT0=
EXTT1=
EXTT2=
EXTT3=
EXTT4=
EXTT5=
EXTT6=
EXTT7=
EXTT8=
EXTT9=
EXTT10=
EXTT11=
EXTT12=
EXTT13=
EXTT14=
EXTT15=
PLAYORDER=
